<?xml version="1.0" standalone="no"?>
<!DOCTYPE svg PUBLIC "-//W3C//DTD SVG 20010904//EN"
 "http://www.w3.org/TR/2001/REC-SVG-20010904/DTD/svg10.dtd">
<svg version="1.0" xmlns="http://www.w3.org/2000/svg"
 width="452.000000pt" height="452.000000pt" viewBox="0 0 452.000000 452.000000"
 preserveAspectRatio="xMidYMid meet">
<metadata>
Created by potrace 1.14, written by Peter Selinger 2001-2017
</metadata>
<g transform="translate(0.000000,452.000000) scale(0.100000,-0.100000)"
fill="#000000" stroke="none">
<path d="M1395 4233 c-299 -33 -561 -203 -666 -433 -51 -110 -62 -161 -63
-290 0 -69 3 -145 7 -169 8 -42 57 -185 62 -179 1 2 5 37 9 78 9 106 37 208
80 290 l24 45 11 -30 c64 -171 135 -275 239 -346 l42 -30 1 48 c3 101 14 153
51 238 17 38 32 89 35 112 14 158 136 290 268 292 134 3 242 -90 281 -239 13
-51 15 -88 10 -172 -3 -59 -11 -119 -16 -134 -17 -43 5 -69 282 -332 l66 -62
31 35 c123 140 201 343 203 525 3 371 -238 654 -627 735 -74 15 -259 25 -330
18z"/>
<path d="M1306 3410 c-15 -33 -29 -70 -32 -83 -9 -40 -12 -181 -4 -236 6 -46
13 -59 46 -89 91 -80 128 -120 155 -167 45 -77 34 -84 -28 -17 -42 44 -101 87
-216 156 -86 52 -176 108 -200 125 -47 32 -118 105 -137 142 -13 23 -13 23
-21 4 -13 -35 -2 -148 20 -204 11 -30 19 -56 18 -57 -1 -1 -33 3 -70 10 -37 7
-101 14 -143 15 l-76 2 43 -38 c96 -86 136 -145 125 -189 -8 -32 -68 -74 -196
-139 -58 -30 -129 -69 -157 -88 l-53 -34 83 -5 c112 -7 177 -42 214 -113 20
-37 19 -124 0 -187 -10 -33 -11 -46 -4 -41 7 4 40 27 74 51 75 52 271 153 333
172 l45 13 -40 13 c-22 7 -51 13 -65 13 -52 2 -54 16 -8 55 93 80 239 131 398
140 l85 4 -85 -27 c-94 -31 -182 -67 -219 -90 -23 -15 -23 -15 30 -27 30 -7
72 -20 93 -29 l39 -17 -49 -28 c-80 -47 -159 -130 -183 -191 l-9 -26 41 14
c60 21 182 20 235 -2 72 -29 136 -119 136 -190 0 -43 -19 -101 -49 -145 -20
-29 -34 -55 -32 -57 3 -2 30 0 61 5 32 5 59 5 62 0 8 -12 -32 -73 -67 -102
-36 -30 -27 -38 30 -25 66 15 148 59 203 107 59 54 63 76 11 78 -55 2 -66 24
-59 112 6 69 6 72 -12 61 -40 -25 -78 23 -68 86 9 59 19 95 27 101 5 3 9 14 9
24 0 18 -12 23 -135 46 l-40 8 60 12 c105 22 157 28 260 28 177 0 204 -24 155
-140 -14 -31 -16 -44 -7 -45 7 0 41 -2 77 -4 107 -6 149 -22 194 -75 25 -30
31 -53 27 -112 -2 -40 16 -35 69 20 97 100 169 284 144 365 -6 18 -7 17 -21
-3 -16 -23 -91 -80 -105 -80 -4 0 -8 10 -8 22 0 12 -18 38 -42 61 -39 37 -41
43 -43 101 -3 65 -26 137 -71 213 -27 47 -131 155 -324 338 -52 50 -111 110
-131 135 -52 63 -98 159 -113 232 l-13 63 -17 -51 c-23 -69 -30 -161 -17 -210
11 -42 24 -56 164 -185 156 -143 230 -226 267 -299 33 -64 23 -65 -29 -3 -47
56 -179 186 -251 248 -191 162 -216 188 -268 268 -39 62 -68 137 -75 195 -2
23 -7 45 -9 48 -3 2 -17 -23 -32 -56z m568 -807 c70 -59 127 -153 92 -153 -26
0 -113 51 -132 77 -19 26 -44 85 -44 104 0 12 60 -8 84 -28z"/>
<path d="M3415 2901 c-27 -10 -74 -32 -104 -50 -52 -31 -211 -148 -221 -163
-3 -4 -22 -14 -42 -22 -32 -14 -37 -14 -49 0 -10 12 -6 25 19 75 l31 60 -32
-23 c-153 -106 -286 -264 -350 -416 -15 -35 -27 -68 -27 -74 0 -6 26 14 58 44
145 138 344 247 529 289 94 21 253 34 253 20 0 -5 -8 -8 -17 -7 -9 2 -46 -3
-82 -11 -313 -65 -543 -224 -809 -557 -57 -71 -101 -130 -100 -131 2 -2 27
-17 56 -34 29 -17 87 -60 130 -95 l79 -65 53 107 c172 349 313 537 451 605
118 57 263 68 375 26 93 -34 114 -34 185 -2 68 32 175 69 224 78 104 19 223
26 273 15 l37 -9 -49 45 c-149 136 -340 215 -526 216 -112 1 -164 -6 -286 -40
-76 -21 -104 -16 -104 19 0 21 45 73 88 101 34 23 21 22 -43 -1z"/>
<path d="M449 2269 c-126 -126 -193 -243 -239 -413 -27 -101 -26 -105 16 -64
41 42 68 52 85 32 13 -16 12 -22 -30 -179 -30 -111 -48 -256 -45 -366 8 -264
91 -476 267 -674 l36 -40 -13 50 c-11 44 -12 73 -7 123 3 28 49 9 106 -43 200
-184 387 -279 613 -310 44 -7 228 -7 257 -1 11 2 41 7 67 10 80 11 219 55 306
98 205 100 392 284 544 535 l47 77 -42 36 c-22 19 -55 46 -72 60 -18 14 -75
60 -127 103 -53 42 -98 77 -100 77 -3 0 -33 -38 -66 -83 -73 -101 -202 -224
-284 -272 -307 -180 -625 -45 -714 304 -22 89 -22 207 2 339 19 104 100 269
179 365 31 37 50 68 43 68 -90 9 -109 3 -223 -71 -89 -57 -115 -69 -115 -52 0
4 9 58 19 120 21 130 25 127 -81 65 -76 -44 -156 -111 -261 -218 -65 -66 -86
-83 -91 -70 -6 18 0 226 8 265 17 75 35 194 30 201 -13 21 -39 4 -115 -72z"/>
<path d="M1747 2233 c-13 -12 -7 -94 9 -126 20 -37 30 -48 105 -108 99 -79
116 -106 125 -198 13 -129 52 -194 184 -301 30 -25 57 -47 60 -50 3 -3 28 -23
55 -45 132 -104 276 -228 293 -253 45 -63 54 -102 57 -247 3 -171 11 -234 36
-298 39 -98 94 -158 186 -206 51 -26 61 -27 41 -3 -40 45 -79 161 -72 212 7
44 34 108 63 144 l29 36 6 -33 c4 -17 9 -42 12 -55 17 -86 92 -221 154 -275
107 -96 232 -141 390 -141 112 0 176 14 285 62 57 25 168 93 178 109 3 5 -43
8 -101 8 -97 0 -112 3 -162 28 -56 29 -90 54 -90 67 0 4 33 10 73 13 223 19
418 118 507 257 89 139 86 290 -9 437 -87 134 -237 220 -416 238 l-60 6 49
-31 c79 -51 113 -100 123 -178 12 -106 -65 -197 -211 -248 -66 -24 -186 -37
-240 -27 l-24 5 32 47 c82 115 92 278 23 391 -24 40 -96 120 -107 120 -4 0 -5
-22 -2 -49 6 -69 -4 -115 -35 -151 -40 -48 -90 -69 -159 -66 -74 3 -97 17
-304 185 -85 69 -189 152 -230 186 -41 33 -81 66 -90 74 -33 31 -117 60 -190
66 -113 9 -135 18 -154 68 -9 24 -16 50 -16 60 0 34 -31 94 -58 109 -15 9 -52
19 -82 23 -161 21 -215 47 -244 117 -7 15 -15 25 -19 21z"/>
</g>
</svg>
